<svg width="800" height="600" xmlns="http://www.w3.org/2000/svg">

 <g>
  <title>Layer 1</title>
  <g stroke="null">
   <title stroke="null">online wishes</title>
   <path stroke="null" fill="#f2f2f2" transform="translate(-66 -34.1429)" d="m684.77601,256.53796c-32.93028,-125.12455 -146.71474,-215.44698 -280.27308,-219.06973c-70.60829,-1.91526 -144.90793,20.71303 -199.00354,99.89761c-96.70174,141.551 5.94255,239.36709 77.50344,285.84734a447.77465,432.68126 0 0 1 92.55318,80.38248c48.33705,55.42622 141.32651,124.30109 252.07275,16.38476c80.26902,-78.21789 79.08206,-180.09717 57.14724,-263.44247z"/>
   <path stroke="null" fill="#ff6584" transform="translate(-66 -34.1429)" d="m853.3376,284.39884c0,32.47434 -27.24398,84.30359 -60.85112,84.30359s-60.85112,-51.82925 -60.85112,-84.30359a60.85112,58.79998 0 1 1 121.70225,0z"/>
   <path stroke="#2f2e41" stroke-width="2" fill="none" transform="translate(-66 -34.1429)" d="m794.74017,370.7933c-7.64707,2.54424 -9.47779,12.6207 -6.84748,20.01089s8.20115,13.52019 11.00421,20.85084a64.66307,62.48344 0 0 1 2.74235,11.36408c1.60129,9.19618 3.20699,18.55406 1.97317,27.80293c-1.17044,8.77371 -4.84903,17.04534 -8.95301,24.95298a241.57998,233.4369 0 0 1 -28.82943,42.99566"/>
   <path stroke="null" fill="#ff6584" transform="translate(-66 -34.1429)" d="m798.35165,374.36989q-5.86517,-3.637 -11.73034,0l0,-11.33494l11.73034,0l0,11.33494z"/>
   <path stroke="#2f2e41" stroke-width="2" fill="none" transform="translate(-66 -34.1429)" d="m786.65205,368.46236a12.90343,12.46849 0 0 0 11.75128,-0.04657"/>
   <ellipse stroke="null" opacity="0.4" fill="#fff" ry="14.8771" rx="12.83006" cy="235.41571" cx="769.39238"/>
   <path stroke="null" fill="#ff6584" transform="translate(-66 -34.1429)" d="m70.33759,275.1892c0,32.47434 27.24398,84.30359 60.85112,84.30359s60.85112,-51.82925 60.85112,-84.30359a60.85112,58.79998 0 0 0 -121.70225,0z"/>
   <path stroke="#2f2e41" stroke-width="2" fill="none" transform="translate(-66 -34.1429)" d="m128.93503,361.58366c7.64707,2.54424 9.47779,12.6207 6.84748,20.01089s-8.20115,13.52019 -11.00421,20.85084a64.66307,62.48344 0 0 0 -2.74235,11.36408c-1.60129,9.19618 -3.20699,18.55406 -1.97317,27.80293c1.17044,8.77371 4.84903,17.04534 8.95301,24.95298a241.57998,233.4369 0 0 0 28.82943,42.99566"/>
   <path stroke="null" fill="#ff6584" transform="translate(-66 -34.1429)" d="m125.32355,365.16025q5.86517,-3.637 11.73034,0l0,-11.33494l-11.73034,0l0,11.33494z"/>
   <path stroke="#2f2e41" stroke-width="2" fill="none" transform="translate(-66 -34.1429)" d="m137.02314,359.25273a12.90343,12.46849 0 0 1 -11.75128,-0.04657"/>
   <ellipse stroke="null" opacity="0.4" fill="#fff" ry="14.8771" rx="12.83006" cy="226.20607" cx="57.50754"/>
   <path stroke="null" fill="#3f3d56" transform="translate(-66 -34.1429)" d="m809.34884,533.76743c0,33.45248 -162.80737,92.80479 -363.64045,92.80479s-344.57866,-120.27759 -344.57866,-153.73007s143.74558,32.58794 344.57866,32.58794s363.64045,-5.11513 363.64045,28.33734z"/>
   <path stroke="null" opacity="0.1" transform="translate(-66 -34.1429)" d="m809.34884,533.76743c0,33.45248 -162.80737,92.80479 -363.64045,92.80479s-344.57866,-120.27759 -344.57866,-153.73007s143.74558,32.58794 344.57866,32.58794s363.64045,-5.11513 363.64045,28.33734z"/>
   <path stroke="null" fill="#3f3d56" transform="translate(-66 -34.1429)" d="m809.34884,533.41321c0,33.45248 -162.80737,60.57106 -363.64045,60.57106s-344.57866,-87.68965 -344.57866,-121.14213s143.74558,0 344.57866,0s363.64045,27.11859 363.64045,60.57106z"/>
   <path stroke="null" fill="#2f2e41" transform="translate(-66 -34.1429)" d="m390.12878,439.14285l-7.36421,45.4328s-36.25459,18.61103 -10.76308,19.15842s145.5848,0 145.5848,0s23.22559,0 -13.59546,-19.70579l-7.36421,-47.62232l-106.49784,2.73688z"/>
   <path stroke="null" opacity="0.1" transform="translate(-66 -34.1429)" d="m366.87339,503.2411c5.78941,-4.97767 15.89115,-10.16424 15.89115,-10.16424l7.36422,-45.43283l106.49783,0.09681l7.36422,44.78862c8.58645,4.5953 13.90558,8.11819 17.01736,10.82017c4.72916,-1.04264 9.89725,-4.91724 -17.01736,-19.32138l-7.36422,-47.62235l-106.49783,2.73693l-7.36422,45.43283s-30.46449,15.64072 -15.89115,18.66544z"/>
   <rect stroke="null" fill="#2f2e41" rx="23.01005" height="322.95611" width="479.80672" y="98.29369" x="154.52021"/>
   <rect stroke="null" fill="#3f3d56" height="241.94339" width="447.51748" y="115.53627" x="170.66483"/>
   <circle stroke="null" fill="#f2f2f2" r="2.67709" cy="107.87291" cx="394.42357"/>
   <path stroke="null" fill="#2f2e41" transform="translate(-66 -34.1429)" d="m682.71457,400.82602l0,28.31065a16.86761,16.29904 0 0 1 -16.86973,16.30105l-446.06727,0a16.86761,16.29904 0 0 1 -16.86969,-16.30105l0,-28.31065l479.80669,0z"/>
   <polygon stroke="null" fill="#2f2e41" points="519.6153647937463,509.1046447753906 519.6153647937463,514.5786743164062 214.85022485690206,514.5786743164062 214.85022485690206,510.1999206542969 215.2695636096505,509.1046447753906 222.7806466336806,489.3988952636719 513.3835813800906,489.3988952636719 519.6153647937463,509.1046447753906 "/>
   <path stroke="null" fill="#2f2e41" transform="translate(-66 -34.1429)" d="m685.28637,527.93386c-0.55514,2.2935 -2.65111,4.71303 -7.38686,7.00105c-16.99433,8.21074 -51.54949,-2.18953 -51.54949,-2.18953s-26.62446,-4.37907 -26.62446,-15.87412a21.24377,20.5277 0 0 1 2.33389,-1.34106c7.14489,-3.6526 30.83503,-12.66569 72.84015,0.38163a17.51817,16.92768 0 0 1 7.98447,5.05604c1.70215,1.92539 3.03674,4.36763 2.40229,6.96598z"/>
   <path stroke="null" opacity="0.1" transform="translate(-66 -34.1429)" d="m685.28637,527.93386c-20.80105,7.70172 -39.34186,8.27643 -58.36986,-4.49399c-9.59615,-6.43724 -18.31424,-8.03014 -24.85705,-7.90966c7.14489,-3.6526 30.83503,-12.66569 72.84015,0.38163a17.51817,16.92768 0 0 1 7.98447,5.05604c1.70215,1.92538 3.03674,4.36763 2.40229,6.96598z"/>
   <ellipse stroke="null" fill="#f2f2f2" ry="2.18953" rx="7.36421" cy="497.06238" cx="610.8181"/>
   <circle stroke="null" fill="#f2f2f2" r="10.17291" cy="399.08079" cx="394.42357"/>
   <polygon stroke="null" opacity="0.1" points="519.6153647937463,509.1046447753906 519.6153647937463,514.5786743164062 214.85022485690206,514.5786743164062 214.85022485690206,510.1999206542969 215.2695636096505,509.1046447753906 519.6153647937463,509.1046447753906 "/>
   <path stroke="#2f2e41" stroke-width="2" fill="none" transform="translate(-66 -34.1429)" d="m708.96208,253.19334c-7.64707,2.54424 -9.47779,12.6207 -6.84748,20.01089s8.20115,13.52019 11.00421,20.85084a64.66307,62.48344 0 0 1 2.74235,11.36408c1.60129,9.19618 3.20699,18.55406 1.97317,27.80293c-1.17044,8.77371 -4.84903,17.04534 -8.95301,24.95298a241.57998,233.4369 0 0 1 -28.82943,42.99566"/>
   <path stroke="null" fill="#6c63ff" transform="translate(-66 -34.1429)" d="m767.55951,166.79887c0,32.47434 -27.24398,84.30359 -60.85112,84.30359s-60.85112,-51.82925 -60.85112,-84.30359a60.85112,58.79998 0 0 1 121.70225,0z"/>
   <path stroke="null" fill="#6c63ff" transform="translate(-66 -34.1429)" d="m712.57355,256.76993q-5.86517,-3.637 -11.73034,0l0,-11.33494l11.73034,0l0,11.33494z"/>
   <path stroke="#2f2e41" stroke-width="2" fill="none" transform="translate(-66 -34.1429)" d="m700.87396,250.8624a12.90343,12.46849 0 0 0 11.75128,-0.04657"/>
   <ellipse stroke="null" opacity="0.4" fill="#fff" ry="14.8771" rx="12.83006" cy="117.81575" cx="683.61428"/>
   <polygon stroke="null" fill="#6c63ff" points="464.48205004546617,217.5899200439453 464.48205004546617,278.9020080566406 447.70841038425715,311.6025695800781 447.70841038425715,311.60614013671875 447.17686388865695,312.6383056640625 402.7702093613261,309.8045654296875 385.6996475351407,308.7135925292969 346.08043381821335,306.1844787597656 346.08043381821335,232.8446044921875 385.6996475351407,233.9242706298828 403.41682924045745,234.40814208984375 448.2399270294336,235.63160705566406 464.48205004546617,217.5899200439453 "/>
   <polygon stroke="null" opacity="0.1" points="464.48205004546617,221.20718383789062 464.48205004546617,278.9020080566406 460.3837958184522,286.8902893066406 460.3837958184522,286.89312744140625 456.1813636125735,295.08123779296875 456.1813636125735,295.08404541015625 447.70841038425715,311.6025695800781 448.6556538809091,250.29051208496094 448.8469950971048,237.9226531982422 456.9042513243694,229.30953979492188 456.9042513243694,229.3067169189453 460.416750686265,225.55198669433594 464.48205004546617,221.20718383789062 "/>
   <polygon stroke="null" fill="#6c63ff" points="466.75918962073774,201.3087158203125 466.75918962073774,222.7239532470703 464.48205004546617,226.22926330566406 460.41382534473814,232.4925537109375 456.81043144254363,238.04026794433594 448.8469950971048,250.29971313476562 448.6556538809091,250.29051208496094 342.5891879580231,245.01904296875 342.5891879580231,223.8970947265625 342.8567970068834,223.6186981201172 355.51967511352996,210.37310791015625 360.10329723061295,205.57984924316406 368.39446137833147,196.9079132080078 466.75918962073774,201.3087158203125 "/>
   <polygon stroke="null" opacity="0.1" points="448.8469950971048,229.17774963378906 448.8469950971048,250.29971313476562 342.5891879580231,245.01904296875 342.5891879580231,223.8970947265625 342.8567970068834,223.6186981201172 448.8469950971048,229.17774963378906 "/>
   <polygon stroke="null" opacity="0.15" points="466.75918962073774,201.3087158203125 466.75918962073774,222.7239532470703 448.8469950971048,250.29971313476562 448.8469950971048,229.17774963378906 466.75918962073774,201.3087158203125 "/>
   <polygon stroke="null" fill="#2f2e41" points="460.4262729714392,211.1623077392578 460.416750686265,225.55198669433594 460.41382534473814,232.4925537109375 460.3837958184522,286.8902893066406 460.3837958184522,286.89312744140625 456.1813636125735,295.08123779296875 456.81043144254363,238.04026794433594 456.9042513243694,229.30953979492188 456.9042513243694,229.3067169189453 457.04720500367694,216.4196014404297 355.51967511352996,210.37310791015625 360.10329723061295,205.57984924316406 460.4262729714392,211.1623077392578 "/>
   <polygon stroke="null" fill="#2f2e41" points="410.5943337791541,211.8693084716797 403.48061959599727,226.79812622070312 403.41682924045745,234.40814208984375 402.7702093613261,309.8045654296875 385.6996475351407,308.7135925292969 385.6996475351407,225.80419921875 394.8075192764809,211.8693084716797 410.5943337791541,211.8693084716797 "/>
   <path stroke="null" fill="#2f2e41" transform="translate(-66 -34.1429)" d="m435.55431,237.06198a22.55609,21.79578 0 0 1 -12.72316,0.4316a5.11339,4.94103 0 0 1 -2.23179,-1.00007a5.78025,5.58541 0 0 1 -1.38046,-2.64285a21.61138,20.88291 0 0 1 -1.2188,-6.32586c0.05101,-2.1535 0.90371,-4.40097 2.72189,-5.64728a6.43329,6.21644 0 0 0 1.03401,-0.75042a4.28789,4.14336 0 0 0 0.80002,-1.57049c1.24378,-3.58508 3.65493,-7.37078 7.52267,-7.94466c3.56847,-0.52948 6.81612,1.87872 9.56559,4.13965l6.03444,4.96222a9.52118,9.20024 0 0 1 17.75354,-0.23368a33.76907,32.6308 0 0 1 13.42435,-8.90067c1.14322,-0.41166 2.48592,-0.74683 3.52802,-0.13382a4.04791,3.91147 0 0 1 1.40418,1.81967a29.00277,28.02516 0 0 1 2.61593,11.05546a2.00222,1.93473 0 0 1 2.32677,0.77561a5.27993,5.10196 0 0 1 0.77444,2.43705a35.69395,34.49079 0 0 1 0.24061,4.01512c-0.00073,1.41495 -0.13647,2.94332 -1.09083,4.01646c-1.23321,1.38668 -3.3624,1.53333 -5.254,1.57682c0.91087,0.78118 0.46613,2.35441 -0.54134,3.01562s-2.3106,0.67337 -3.52842,0.66191c-4.69494,-0.04416 -9.68912,-0.17313 -13.59447,-2.69157c-1.542,-0.99439 -2.83351,-2.31867 -4.37956,-3.30728c-3.78933,-2.42303 -8.54691,-2.53884 -12.93317,-2.33834c-3.95876,0.18096 -7.1011,3.36 -10.87047,4.5798z"/>
   <path stroke="null" fill="#2f2e41" transform="translate(-66 -34.1429)" d="m434.69433,236.0573s-39.16354,5.28048 -44.62822,28.16256l8.19702,-1.17344l5.76828,9.97424s6.07186,-22.29536 23.98388,-27.57584s24.28747,-6.16054 24.28747,-6.16054s12.44735,2.93362 23.68028,37.84343l6.37544,-8.50744l11.23296,2.34688s-8.19702,-27.28248 -30.35934,-34.90983l-28.53775,-0.00002z"/>
  </g>
  <text transform="matrix(1.81689 0 0 1.75686 -205.615 -102.058)" stroke="#000" font-style="normal" font-weight="normal" xml:space="preserve" text-anchor="start" font-family="'Calistoga'" font-size="93" id="svg_3" y="226.89397" x="246.02902" stroke-width="0" fill="#ffffff">RPG</text>
 </g>
</svg>